<svg xmlns="http://www.w3.org/2000/svg" width="64" height="64" viewBox="0 0 38.33 38.329"><path fill-rule="evenodd" clip-rule="evenodd" d="M19.164 0l6.776 2.806 6.776 2.808 2.807 6.775 2.807 6.775-2.807 6.776-2.807 6.776-6.776 2.807-6.776 2.806-6.775-2.807-6.776-2.807-2.807-6.775L0 19.166l2.807-6.776 2.807-6.776 6.775-2.808L19.163 0zm0 30.75c.46-.595 1.314-.566 1.896-.402.132.036.27-.04.308-.17.093-.328.237-.647.43-.956.406-.658.68-.534-.078-.96-.312-.175-.648-.326-.998-.445-1.162-.4-1.95-.4-3.112 0-.35.12-.686.27-.998.446-.757.425-.483.3-.077.96.192.31.337.627.43.954.038.13.175.208.307.17.58-.163 1.435-.192 1.892.404zM13.95 17.444c-.07 0-.13.045-.15.113-.02.068.01.137.067.175.86.53 1.397 1.43 2.18 1.576.835.157 1.487-.625 1.6-1.52.01-.058-.017-.114-.066-.146-.05-.034-.11-.036-.163-.006-.675.388-2.24-.178-3.466-.19zm5.214-2.966c-1.864-2.005-4.16-2.813-5.928-2.17-4.646 1.688-3.52 7.508-1.967 9.46.243-.52.587-.974 1.508-1.317-.053 1.906.02 2.603.822 3.327.457-1.268 1.188-2.068 2.245-2.31-.777.817-1.34 1.733-1.612 2.785-.278 1.074-.34 1.71.38 2.584.312.38.67.66 1.04.917.744-.483 1.497-.83 2.396-1.052.083-.02.168-.035.255-.058.418-.11.46-.177.46-.95 0-.48.03-.487-.312-.822-.367-.36-.74-.65-1.144-.88-.512-.288-.94-.2-.554-.694.317-.404.484-.32.95-.32h2.914c.468 0 .635-.084.952.32.388.494-.042.407-.554.695-.402.23-.775.52-1.144.88-.343.335-.31.342-.31.823 0 .772.04.84.46.95.085.022.17.038.255.058.897.223 1.65.57 2.395 1.053.37-.257.728-.537 1.04-.917.72-.873.658-1.51.38-2.584-.274-1.05-.837-1.968-1.613-2.785 1.058.242 1.788 1.042 2.245 2.31.8-.724.876-1.42.823-3.327.92.343 1.265.796 1.508 1.318 1.554-1.953 2.68-7.772-1.966-9.462-1.766-.642-4.062.166-5.928 2.17zm5.214 2.966c-1.224.013-2.79.578-3.465.19-.053-.03-.113-.027-.164.007-.05.033-.075.09-.067.147.112.894.765 1.675 1.6 1.52.783-.147 1.32-1.047 2.18-1.576.06-.037.087-.107.068-.174-.02-.067-.08-.113-.152-.113z"/></svg>