<svg xmlns="http://www.w3.org/2000/svg" width="64" height="64" viewBox="0 0 22.386 19"><g fill-rule="evenodd" clip-rule="evenodd"><path d="M22.386 15.325c-.08.132-.197.225-.336.287-.165.074-.337.137-.507.202-.062.023-.126.04-.19.058l-.284.664c.1.177.207.352.3.537.073.148.125.306.123.478 0 .124-.037.23-.122.317-.046.048-.096.092-.14.142-.09.102-.206.14-.336.117-.105-.018-.213-.04-.31-.084-.15-.068-.294-.154-.438-.236-.07-.04-.14-.09-.207-.135l-.658.27c-.05.174-.086.344-.146.505-.047.123-.117.238-.192.347-.096.137-.24.194-.406.206-.22.016-.388-.064-.512-.244-.12-.172-.196-.364-.264-.56-.03-.087-.054-.174-.08-.256l-.662-.29c-.23.2-.482.35-.777.426-.185.048-.344.017-.486-.108-.006-.005-.012-.012-.02-.016-.236-.147-.265-.362-.2-.61.054-.2.14-.39.237-.573.042-.08.088-.16.13-.237l-.277-.646-.183-.07c-.18-.063-.356-.133-.517-.242-.26-.178-.352-.445-.25-.74.042-.122.133-.207.237-.28.16-.108.34-.167.525-.22l.184-.05c.048-.12.09-.227.134-.333.042-.1.09-.196.145-.313-.036-.068-.08-.147-.12-.227-.104-.208-.2-.42-.236-.652-.03-.198.014-.36.184-.478.028-.02.053-.042.077-.065.142-.13.307-.15.487-.103.178.047.34.13.493.23l.232.156.66-.283c.06-.155.108-.313.18-.462.06-.126.137-.246.22-.358.084-.11.2-.17.347-.162.04.002.083.002.124 0 .175-.01.303.072.407.203.11.138.175.3.228.466.03.095.052.192.08.3.213.09.433.185.67.287l.16-.08c.17-.086.338-.177.512-.253.09-.04.19-.057.288-.073.167-.028.312.013.42.153.03.04.07.07.103.11.097.114.128.245.1.394-.036.174-.104.334-.193.484-.076.127-.16.25-.25.39l.276.666c.055.014.118.028.18.045.12.034.24.064.358.104.2.066.37.175.5.345-.002.185-.002.368-.002.55zm-5.11-.214c.006.71.53 1.325 1.296 1.337.73.012 1.342-.562 1.356-1.308.015-.732-.588-1.327-1.328-1.334-.73-.006-1.308.568-1.324 1.305zM13.57 11.22c.205.267.382.538.527.827.142.283.256.575.288.894.034.334-.045.625-.296.86-.104.096-.204.195-.3.3-.21.228-.472.29-.77.25-.25-.032-.486-.104-.716-.2-.3-.123-.585-.276-.86-.445l-.226-.137c-.45.24-.923.44-1.415.572.007.054.023.102.016.145-.086.45-.2.892-.423 1.295-.084.15-.185.296-.297.428-.198.233-.46.348-.768.35h-.3c-.216-.004-.4-.084-.562-.23-.155-.14-.275-.31-.38-.49-.218-.374-.363-.78-.49-1.193-.032-.11-.072-.218-.11-.327-.1-.037-.2-.074-.302-.11-.385-.132-.75-.31-1.12-.517l.01.118c-.025.02-.056.05-.09.072-.332.234-.685.437-1.07.575-.227.082-.46.136-.704.127-.224-.008-.423-.075-.595-.22-.12-.103-.24-.205-.362-.306-.155-.13-.23-.3-.243-.5-.015-.226.02-.446.082-.663.126-.433.324-.833.55-1.223.048-.086.1-.17.157-.268-.104-.22-.217-.44-.314-.667-.094-.22-.17-.45-.26-.69-.052-.015-.113-.036-.176-.054-.335-.094-.67-.197-.983-.348-.193-.093-.382-.2-.56-.317-.118-.077-.218-.18-.314-.28C.073 8.71.008 8.55.002 8.368 0 8.22 0 8.07.005 7.92c.01-.224.104-.415.256-.578.15-.16.33-.28.522-.378.388-.197.802-.313 1.226-.4l.21-.046c.092-.247.17-.483.266-.712.092-.22.2-.434.306-.656l-.142-.237c-.22-.364-.414-.74-.547-1.142-.07-.22-.13-.445-.128-.68.003-.255.087-.47.295-.63.112-.085.217-.18.324-.272.164-.14.353-.21.57-.217.21-.005.412.026.61.09.4.128.762.328 1.108.558l.26.174c.436-.237.89-.437 1.378-.582.028-.094.058-.188.085-.282.105-.36.23-.71.4-1.043.11-.215.238-.418.407-.594.188-.194.413-.3.688-.29.09.003.183 0 .273.002.26.01.48.106.666.292.174.173.298.377.4.597.168.355.273.73.352 1.112.013.064.03.126.05.194.486.142.943.332 1.39.58.07-.042.142-.08.212-.123.326-.2.664-.377 1.022-.51.257-.094.52-.17.8-.164.227.003.42.075.575.246.1.11.204.218.31.326.224.233.29.513.25.826-.026.198-.08.39-.153.575-.13.326-.3.627-.496.917-.05.076-.102.15-.16.236.108.23.225.457.324.69.096.23.173.466.263.71.156.034.318.066.48.105.33.082.65.192.95.355.17.09.326.2.46.34.14.146.25.315.268.52.02.206.02.415.007.62-.01.162-.095.3-.202.42-.145.163-.32.287-.51.395-.367.213-.76.37-1.17.475-.217.055-.332.152-.392.375-.106.387-.29.743-.492 1.11zm-2.423-3.055c.02-1.5-1.27-2.937-2.998-2.934-1.63.003-2.93 1.31-2.924 2.94.004 1.702 1.366 2.967 2.926 2.968 1.67 0 3.01-1.41 2.995-2.973z"/></g></svg>