<svg xmlns="http://www.w3.org/2000/svg" width="64" height="64" viewBox="0 0 25.001 25.009"><path fill-rule="evenodd" clip-rule="evenodd" d="M22.04 9.25c.115.056.22.106.325.16 1.372.726 2.235 1.844 2.54 3.362.286 1.41-.074 2.678-.993 3.775-.85 1.02-1.948 1.62-3.252 1.852-.188.032-.38.042-.574.06-.082.007-.166-.007-.268-.014-.008-.084-.02-.158-.02-.23-.003-.44-.003-.88-.003-1.315 0-2.55.022-5.096-.005-7.645-.024-2.5-1.35-5.106-3.82-6.467-.835-.46-1.726-.742-2.676-.84-1.712-.182-3.303.168-4.747 1.105-1.518.986-2.5 2.377-3.024 4.1-.23.752-.336 1.522-.336 2.31 0 2.88 0 5.76-.002 8.64 0 .162.03.316.087.468.354.945.99 1.613 1.93 1.99.48.19.977.318 1.48.416.69.138 1.387.262 2.08.39.03.007.064 0 .113 0 .04-.047.086-.104.13-.16.083-.102.16-.206.245-.3.36-.406.817-.578 1.35-.544 1.257.08 2.18 1.044 2.218 2.247.042 1.306-.94 2.195-1.938 2.367-1.033.178-2.175-.39-2.582-1.505-.024-.067-.054-.138-.084-.208-.443-.098-.883-.19-1.32-.293-.854-.197-1.703-.42-2.512-.768-.323-.138-.644-.293-.95-.468-1.25-.712-2.063-1.773-2.468-3.15-.053-.175-.098-.35-.144-.518-1.81-.95-2.852-2.398-2.818-4.468.034-2.06 1.112-3.47 2.944-4.363C3.1 6.37 4.244 3.975 6.478 2.14 8.248.688 10.306-.025 12.59 0c2.552.03 4.767.948 6.593 2.738 1.815 1.784 2.737 3.975 2.858 6.51z"/></svg>